<svg id="svg" version="1.1" xmlns="http://www.w3.org/2000/svg" xmlns:xlink="http://www.w3.org/1999/xlink" width="400" height="400" viewBox="0, 0, 400,400"><g id="svgg"><path id="path0" d="M34.295 0.239 C 34.162 0.371,33.412 0.480,32.628 0.480 C 31.844 0.480,31.302 0.642,31.425 0.840 C 31.608 1.136,29.409 1.423,28.300 1.247 C 28.135 1.221,28.000 1.366,28.000 1.569 C 28.000 1.772,27.370 2.146,26.600 2.400 C 25.830 2.654,25.200 3.028,25.200 3.231 C 25.200 3.434,24.874 3.600,24.475 3.600 C 24.077 3.600,23.364 3.960,22.892 4.400 C 22.420 4.840,21.843 5.200,21.611 5.200 C 20.953 5.200,19.465 6.127,18.882 6.900 C 18.592 7.285,17.975 7.600,17.511 7.600 C 17.046 7.600,16.776 7.709,16.909 7.843 C 17.226 8.160,16.291 9.171,15.900 8.934 C 15.735 8.835,15.600 8.943,15.600 9.176 C 15.600 9.409,15.330 9.600,15.000 9.600 C 14.670 9.600,14.400 9.900,14.400 10.267 C 14.400 10.633,14.289 10.822,14.152 10.686 C 13.795 10.328,12.705 11.522,12.981 11.969 C 13.109 12.176,13.002 12.475,12.745 12.634 C 12.452 12.815,12.384 12.750,12.562 12.462 C 12.719 12.208,12.657 12.000,12.424 12.000 C 12.191 12.000,12.000 12.270,12.000 12.600 C 12.000 12.930,11.801 13.200,11.557 13.200 C 11.314 13.200,11.212 13.453,11.330 13.762 C 11.585 14.427,10.285 15.738,9.804 15.301 C 9.622 15.135,9.585 15.313,9.722 15.695 C 9.877 16.128,9.788 16.354,9.486 16.295 C 9.219 16.243,9.045 16.425,9.100 16.700 C 9.155 16.975,8.975 17.203,8.700 17.206 C 8.340 17.211,8.355 17.310,8.754 17.563 C 9.197 17.843,9.136 18.006,8.454 18.371 C 7.984 18.622,7.600 19.092,7.600 19.414 C 7.600 19.736,7.420 20.000,7.200 20.000 C 6.980 20.000,6.800 20.450,6.800 21.000 C 6.800 21.550,6.620 22.000,6.400 22.000 C 6.180 22.000,6.000 22.506,6.000 23.125 C 6.000 23.743,5.633 24.643,5.184 25.125 C 4.736 25.606,4.556 26.000,4.784 26.000 C 5.013 26.000,5.197 26.315,5.194 26.700 C 5.189 27.298,5.131 27.313,4.800 26.800 C 4.506 26.345,4.411 26.514,4.406 27.500 C 4.403 28.267,4.195 28.803,3.900 28.806 C 3.567 28.810,3.600 28.942,4.000 29.200 C 4.400 29.458,4.433 29.590,4.100 29.594 C 3.767 29.598,3.600 30.270,3.600 31.600 C 3.600 32.700,3.421 33.600,3.202 33.600 C 2.672 33.600,2.647 366.734,3.177 367.373 C 3.384 367.621,3.595 368.764,3.648 369.912 C 3.700 371.061,3.891 372.000,4.071 372.000 C 4.252 372.000,4.400 372.551,4.400 373.224 C 4.400 373.937,4.567 374.344,4.800 374.200 C 5.023 374.062,5.200 374.369,5.200 374.896 C 5.200 375.415,5.379 376.019,5.598 376.238 C 5.816 376.456,6.036 377.122,6.085 377.718 C 6.134 378.313,6.272 378.800,6.391 378.800 C 6.510 378.800,6.844 379.179,7.133 379.642 C 7.569 380.339,7.568 380.431,7.130 380.177 C 6.838 380.009,7.005 380.317,7.500 380.861 C 7.995 381.406,8.400 382.226,8.400 382.683 C 8.400 383.140,8.670 383.618,9.000 383.745 C 9.330 383.871,9.600 384.360,9.600 384.830 C 9.600 385.395,9.788 385.613,10.155 385.473 C 10.545 385.323,10.649 385.490,10.507 386.036 C 10.359 386.602,10.464 386.750,10.897 386.584 C 11.319 386.422,11.563 386.717,11.741 387.605 C 11.880 388.300,12.170 388.742,12.395 388.603 C 12.618 388.465,12.800 388.633,12.800 388.976 C 12.800 389.319,13.025 389.555,13.300 389.500 C 13.575 389.445,13.748 389.647,13.684 389.949 C 13.608 390.305,13.791 390.412,14.204 390.254 C 14.555 390.119,14.745 390.166,14.627 390.357 C 14.508 390.548,15.025 391.125,15.776 391.639 C 16.526 392.154,17.053 392.715,16.946 392.887 C 16.840 393.059,17.243 393.200,17.843 393.200 C 18.443 393.200,18.814 393.319,18.669 393.465 C 18.380 393.753,20.896 395.600,21.579 395.600 C 21.810 395.600,22.000 395.780,22.000 396.000 C 22.000 396.220,22.270 396.400,22.600 396.400 C 22.930 396.400,23.200 396.580,23.200 396.800 C 23.200 397.020,23.661 397.200,24.224 397.200 C 24.804 397.200,25.140 397.373,25.000 397.600 C 24.785 397.948,25.596 398.190,26.500 398.047 C 26.665 398.021,26.800 398.180,26.800 398.400 C 26.800 398.620,27.070 398.800,27.400 398.800 C 27.730 398.800,28.000 398.951,28.000 399.135 C 28.000 400.021,372.405 400.186,372.700 399.300 C 372.792 399.025,373.222 398.800,373.657 398.800 C 374.092 398.800,374.336 398.620,374.200 398.400 C 374.061 398.175,374.382 398.000,374.934 398.000 C 375.473 398.000,376.017 397.733,376.142 397.407 C 376.283 397.039,376.629 396.913,377.050 397.075 C 377.511 397.252,377.638 397.185,377.442 396.868 C 377.261 396.574,377.432 396.400,377.901 396.400 C 378.312 396.400,379.043 396.033,379.525 395.584 C 380.006 395.136,380.400 394.879,380.400 395.013 C 380.400 395.147,380.648 395.019,380.951 394.729 C 381.773 393.940,383.083 393.076,383.358 393.141 C 383.490 393.173,384.267 392.569,385.083 391.800 C 385.899 391.030,386.709 390.400,386.883 390.400 C 387.058 390.400,387.200 390.119,387.200 389.776 C 387.200 389.433,387.361 389.252,387.557 389.374 C 387.754 389.495,388.033 389.124,388.177 388.549 C 388.518 387.190,389.453 386.203,389.736 386.904 C 389.847 387.177,389.951 386.894,389.968 386.276 C 389.986 385.658,390.161 385.252,390.358 385.374 C 390.555 385.496,390.996 384.921,391.338 384.098 C 391.679 383.274,391.972 382.870,391.988 383.200 C 392.005 383.530,392.313 383.170,392.673 382.400 C 393.033 381.630,393.719 380.190,394.197 379.200 C 394.675 378.210,394.983 377.150,394.881 376.844 C 394.769 376.507,394.874 376.398,395.148 376.568 C 395.428 376.741,395.600 376.534,395.600 376.024 C 395.600 375.571,395.735 375.200,395.900 375.200 C 396.065 375.200,396.237 374.527,396.282 373.706 C 396.327 372.884,396.560 372.147,396.799 372.067 C 397.104 371.965,397.095 371.755,396.768 371.361 C 396.432 370.956,396.427 370.800,396.751 370.800 C 397.016 370.800,397.200 370.064,397.200 369.000 C 397.200 367.830,397.375 367.198,397.700 367.194 C 398.039 367.190,398.007 367.051,397.600 366.763 C 397.149 366.444,397.124 366.289,397.500 366.136 C 398.182 365.860,398.237 34.994,397.555 34.572 C 397.250 34.383,397.281 34.195,397.657 33.956 C 398.057 33.703,398.068 33.611,397.700 33.606 C 397.367 33.602,397.200 32.930,397.200 31.600 C 397.200 30.270,397.033 29.598,396.700 29.594 C 396.367 29.590,396.400 29.458,396.800 29.200 C 397.200 28.942,397.233 28.810,396.900 28.806 C 396.612 28.803,396.400 28.290,396.400 27.600 C 396.400 26.910,396.188 26.397,395.900 26.394 C 395.567 26.390,395.600 26.258,396.000 26.000 C 396.400 25.742,396.433 25.610,396.100 25.606 C 395.825 25.603,395.600 25.240,395.600 24.800 C 395.600 24.360,395.449 24.000,395.264 24.000 C 395.079 24.000,394.688 23.235,394.394 22.300 C 394.100 21.365,393.522 20.218,393.109 19.752 C 392.696 19.285,392.330 18.533,392.296 18.080 C 392.262 17.626,392.091 17.344,391.917 17.451 C 391.743 17.559,391.600 17.457,391.600 17.224 C 391.600 16.475,391.444 16.220,390.298 15.100 C 389.679 14.495,389.297 14.000,389.448 14.000 C 389.600 14.000,389.426 13.670,389.061 13.268 C 388.697 12.865,388.519 12.415,388.666 12.268 C 388.813 12.120,388.623 12.000,388.243 12.000 C 387.863 12.000,387.635 11.865,387.734 11.700 C 387.951 11.342,386.973 10.360,386.686 10.647 C 386.577 10.757,386.095 10.296,385.616 9.623 C 385.137 8.950,384.477 8.400,384.149 8.400 C 383.821 8.400,383.664 8.220,383.800 8.000 C 383.941 7.772,383.596 7.600,383.000 7.600 C 382.424 7.600,382.052 7.439,382.174 7.242 C 382.296 7.045,382.171 6.773,381.898 6.638 C 381.624 6.502,380.860 6.031,380.200 5.591 C 379.540 5.151,378.685 4.682,378.300 4.549 C 377.915 4.416,377.600 4.137,377.600 3.930 C 377.600 3.722,377.435 3.655,377.232 3.780 C 377.030 3.905,376.593 3.736,376.261 3.404 C 375.929 3.072,375.234 2.800,374.717 2.800 C 374.200 2.800,373.517 2.440,373.200 2.000 C 372.836 1.495,372.165 1.200,371.378 1.200 C 370.694 1.200,370.008 1.075,369.855 0.922 C 369.702 0.769,369.267 0.549,368.888 0.435 C 367.917 0.140,34.589 -0.055,34.295 0.239 M321.523 43.061 C 324.190 43.204,326.278 43.474,326.162 43.661 C 325.967 43.977,327.701 44.202,329.300 44.068 C 329.685 44.036,330.000 44.187,330.000 44.405 C 330.000 44.622,330.371 44.800,330.824 44.800 C 331.277 44.800,331.536 44.980,331.400 45.200 C 331.260 45.427,331.598 45.600,332.182 45.600 C 333.242 45.600,333.740 45.788,335.800 46.964 C 336.460 47.341,337.315 47.749,337.700 47.871 C 338.085 47.993,338.400 48.252,338.400 48.447 C 338.400 48.641,338.771 48.800,339.224 48.800 C 339.677 48.800,339.936 48.980,339.800 49.200 C 339.573 49.567,340.120 49.778,340.930 49.637 C 341.111 49.606,341.145 49.765,341.006 49.990 C 340.867 50.216,340.941 50.400,341.172 50.400 C 341.821 50.400,343.200 51.713,343.200 52.332 C 343.200 52.677,343.443 52.792,343.845 52.638 C 344.306 52.461,344.423 52.563,344.257 52.995 C 344.108 53.383,344.260 53.600,344.679 53.600 C 345.039 53.600,345.217 53.717,345.074 53.859 C 344.789 54.144,346.304 55.600,346.885 55.600 C 347.084 55.600,347.148 55.761,347.026 55.958 C 346.904 56.155,347.074 56.419,347.402 56.546 C 347.731 56.672,348.000 56.984,348.000 57.241 C 348.000 57.497,348.315 57.999,348.700 58.357 C 349.611 59.205,350.400 60.625,350.400 61.418 C 350.400 61.764,350.562 61.947,350.761 61.824 C 351.056 61.642,352.002 63.428,352.159 64.467 C 352.182 64.613,352.335 64.868,352.500 65.033 C 352.665 65.198,352.800 65.753,352.800 66.267 C 352.800 66.780,352.980 67.200,353.200 67.200 C 353.420 67.200,353.600 67.710,353.600 68.333 C 353.600 68.957,353.735 69.602,353.900 69.767 C 354.248 70.114,354.283 70.306,354.350 72.224 C 354.386 73.248,354.540 73.563,354.900 73.347 C 355.240 73.143,355.224 73.263,354.851 73.723 C 354.493 74.164,354.458 74.400,354.751 74.400 C 355.082 74.400,355.200 107.666,355.200 201.024 C 355.200 270.667,355.047 327.553,354.860 327.437 C 354.674 327.322,354.489 327.716,354.450 328.314 C 354.346 329.916,354.175 330.926,353.891 331.600 C 353.753 331.930,353.446 332.957,353.209 333.883 C 352.972 334.809,352.603 335.674,352.389 335.807 C 352.175 335.939,352.000 336.420,352.000 336.877 C 352.000 337.333,351.682 337.997,351.293 338.353 C 350.905 338.709,350.397 339.540,350.165 340.200 C 349.932 340.860,349.517 341.351,349.241 341.290 C 348.966 341.230,348.858 341.370,349.001 341.601 C 349.144 341.833,348.842 342.391,348.331 342.842 C 347.819 343.292,347.670 343.544,348.000 343.401 C 348.330 343.258,348.240 343.432,347.800 343.788 C 347.360 344.143,347.000 344.616,347.000 344.839 C 347.000 345.445,345.195 347.200,344.571 347.200 C 344.225 347.200,344.119 347.445,344.282 347.869 C 344.477 348.377,344.377 348.477,343.869 348.282 C 343.485 348.134,343.200 348.219,343.200 348.481 C 343.200 349.222,341.935 350.400,341.138 350.400 C 340.732 350.400,340.400 350.664,340.400 350.986 C 340.400 351.563,339.117 352.476,338.057 352.652 C 337.758 352.701,337.116 353.115,336.631 353.571 C 336.146 354.027,335.265 354.400,334.674 354.400 C 334.083 354.400,333.600 354.580,333.600 354.800 C 333.600 355.020,333.330 355.200,333.000 355.200 C 332.670 355.200,332.400 355.380,332.400 355.600 C 332.400 355.820,331.871 356.000,331.224 356.000 C 330.577 356.000,329.933 356.185,329.793 356.411 C 329.654 356.636,329.328 356.795,329.070 356.763 C 327.594 356.581,325.583 356.850,325.800 357.200 C 325.965 357.466,284.063 357.600,200.400 357.600 C 116.737 357.600,74.835 357.466,75.000 357.200 C 75.136 356.980,74.956 356.800,74.600 356.800 C 74.189 356.800,74.062 356.982,74.253 357.300 C 74.450 357.627,74.315 357.606,73.863 357.240 C 73.483 356.931,72.642 356.694,71.993 356.713 C 71.345 356.731,70.710 356.578,70.583 356.373 C 70.457 356.168,69.868 355.987,69.276 355.972 C 68.315 355.947,68.286 355.907,69.000 355.600 C 69.670 355.312,69.589 355.252,68.500 355.228 C 67.785 355.213,67.200 355.020,67.200 354.800 C 67.200 354.580,66.742 354.400,66.183 354.400 C 65.624 354.400,64.780 354.040,64.308 353.600 C 63.836 353.160,63.112 352.800,62.701 352.800 C 62.289 352.800,62.045 352.650,62.158 352.468 C 62.271 352.285,61.741 351.891,60.980 351.592 C 60.037 351.222,59.756 350.948,60.098 350.731 C 60.455 350.504,60.392 350.410,59.882 350.406 C 59.142 350.400,57.717 349.173,56.838 347.786 C 56.346 347.010,56.343 347.010,56.593 347.800 C 56.761 348.328,56.713 348.464,56.452 348.200 C 56.235 347.980,55.999 347.530,55.929 347.200 C 55.782 346.515,54.458 345.200,53.915 345.200 C 53.716 345.200,53.652 345.039,53.774 344.842 C 53.896 344.645,53.726 344.381,53.398 344.254 C 53.069 344.128,52.800 343.756,52.800 343.427 C 52.800 343.097,52.440 342.635,52.000 342.400 C 51.560 342.165,51.200 341.633,51.200 341.219 C 51.200 340.805,51.034 340.407,50.830 340.333 C 50.627 340.260,50.402 339.937,50.330 339.616 C 50.200 339.030,49.819 338.441,48.919 337.434 C 48.655 337.138,48.550 336.784,48.686 336.648 C 48.822 336.511,48.762 336.400,48.552 336.400 C 48.342 336.400,48.140 335.998,48.103 335.506 C 48.066 335.014,47.848 334.549,47.618 334.473 C 47.388 334.396,47.197 333.583,47.194 332.667 C 47.190 331.489,47.079 331.172,46.818 331.585 C 46.465 332.143,46.411 331.715,46.333 327.700 C 46.323 327.205,46.154 326.800,45.956 326.800 C 45.507 326.800,45.712 74.363,46.163 72.400 C 46.340 71.630,46.501 70.607,46.522 70.126 C 46.543 69.645,46.704 69.341,46.880 69.449 C 47.056 69.558,47.200 69.017,47.200 68.247 C 47.200 67.477,47.380 66.736,47.600 66.600 C 47.820 66.464,48.000 66.003,48.000 65.576 C 48.000 65.149,48.136 64.800,48.302 64.800 C 48.469 64.800,48.842 64.215,49.132 63.500 C 49.422 62.785,49.822 61.795,50.021 61.300 C 50.220 60.805,50.567 60.400,50.791 60.400 C 51.016 60.400,51.200 60.066,51.200 59.658 C 51.200 59.250,51.754 58.457,52.431 57.896 C 53.109 57.335,53.676 56.724,53.693 56.538 C 53.770 55.684,55.473 53.609,56.100 53.605 C 56.485 53.602,56.800 53.418,56.800 53.196 C 56.800 52.631,58.989 50.400,59.543 50.400 C 59.794 50.400,60.000 50.220,60.000 50.000 C 60.000 49.780,60.281 49.600,60.624 49.600 C 60.967 49.600,61.136 49.420,61.000 49.200 C 60.864 48.980,61.033 48.800,61.376 48.800 C 61.719 48.800,62.000 48.659,62.000 48.487 C 62.000 48.315,62.427 48.139,62.948 48.096 C 63.470 48.053,64.433 47.519,65.090 46.909 C 66.318 45.766,70.601 44.230,71.319 44.674 C 71.542 44.811,71.609 44.738,71.469 44.512 C 71.323 44.276,71.639 44.075,72.207 44.042 C 74.109 43.930,74.400 43.865,74.400 43.550 C 74.400 42.917,310.172 42.450,321.523 43.061 M78.406 56.300 C 78.402 56.611,77.826 56.800,76.880 56.800 C 76.044 56.800,75.118 57.025,74.821 57.300 C 74.390 57.700,74.339 57.700,74.565 57.300 C 74.980 56.564,74.483 56.691,73.552 57.559 C 72.853 58.210,71.649 58.625,69.738 58.873 C 69.484 58.906,69.380 59.205,69.508 59.536 C 69.675 59.974,69.555 60.068,69.069 59.882 C 68.701 59.741,68.400 59.799,68.400 60.013 C 68.400 60.226,68.175 60.403,67.900 60.407 C 67.625 60.411,66.981 60.856,66.468 61.396 C 65.956 61.937,65.334 62.339,65.086 62.289 C 64.839 62.240,64.606 62.425,64.568 62.700 C 64.531 62.975,64.478 63.391,64.450 63.624 C 64.422 63.857,64.220 63.936,64.000 63.800 C 63.640 63.578,63.427 64.103,63.553 64.900 C 63.579 65.065,63.465 65.179,63.300 65.153 C 62.298 64.994,61.980 65.295,62.085 66.300 C 62.163 67.044,62.028 67.364,61.670 67.290 C 61.379 67.230,61.247 67.352,61.377 67.562 C 61.507 67.773,61.194 68.397,60.682 68.949 C 60.065 69.615,59.779 70.366,59.836 71.176 C 59.882 71.848,59.758 72.298,59.560 72.175 C 59.362 72.053,59.199 72.143,59.198 72.376 C 59.194 72.930,59.194 327.870,59.198 328.424 C 59.199 328.657,59.362 328.747,59.560 328.625 C 59.758 328.502,59.882 328.952,59.836 329.624 C 59.780 330.426,60.062 331.182,60.656 331.823 C 61.154 332.360,61.444 332.800,61.301 332.800 C 61.157 332.800,61.256 333.016,61.520 333.280 C 61.784 333.544,62.000 334.193,62.000 334.723 C 62.000 335.414,62.169 335.621,62.600 335.455 C 62.969 335.314,63.200 335.456,63.200 335.825 C 63.200 336.155,63.469 336.528,63.798 336.654 C 64.126 336.781,64.296 337.045,64.174 337.242 C 64.052 337.439,64.154 337.600,64.400 337.600 C 64.651 337.600,64.716 337.819,64.547 338.100 C 64.372 338.391,64.561 338.349,64.998 338.000 C 65.679 337.456,65.725 337.465,65.489 338.095 C 65.325 338.533,65.409 338.755,65.714 338.695 C 65.981 338.643,66.151 338.838,66.090 339.130 C 66.030 339.421,66.151 339.554,66.360 339.425 C 66.568 339.296,67.119 339.725,67.584 340.377 C 68.051 341.034,68.667 341.472,68.963 341.359 C 69.257 341.246,69.777 341.434,70.120 341.777 C 70.463 342.120,71.251 342.413,71.871 342.428 C 72.863 342.453,72.903 342.498,72.200 342.800 C 71.530 343.088,71.611 343.148,72.700 343.172 C 73.415 343.187,74.000 343.388,74.000 343.618 C 74.000 343.847,74.225 344.006,74.500 343.970 C 75.773 343.805,77.626 344.034,77.441 344.333 C 77.328 344.517,77.489 344.667,77.800 344.667 C 78.111 344.667,78.272 344.517,78.159 344.333 C 78.045 344.150,78.368 344.003,78.876 344.006 C 79.619 344.011,79.683 344.088,79.200 344.400 C 78.870 344.613,78.789 344.791,79.020 344.794 C 79.251 344.797,79.656 344.584,79.920 344.320 C 80.293 343.947,80.400 343.947,80.400 344.320 C 80.400 344.692,107.333 344.800,200.400 344.800 C 280.133 344.800,320.400 344.666,320.400 344.400 C 320.400 344.173,321.573 344.000,323.120 344.000 C 325.669 344.000,327.990 343.381,327.997 342.700 C 327.999 342.535,328.495 342.394,329.100 342.387 C 330.360 342.373,331.730 341.490,331.294 340.974 C 331.132 340.783,331.274 340.834,331.610 341.087 C 332.260 341.578,334.800 339.795,334.800 338.847 C 334.800 338.413,335.383 338.221,336.200 338.386 C 336.420 338.430,336.468 338.334,336.306 338.173 C 336.145 338.011,336.325 337.623,336.706 337.310 C 337.136 336.957,337.172 336.852,336.800 337.033 C 336.470 337.194,336.650 336.881,337.200 336.336 C 337.750 335.792,338.298 335.391,338.417 335.445 C 338.536 335.500,338.663 335.156,338.699 334.680 C 338.735 334.205,339.026 333.624,339.346 333.390 C 339.665 333.156,339.988 332.613,340.063 332.183 C 340.139 331.752,340.413 331.174,340.673 330.898 C 340.933 330.622,341.067 329.959,340.970 329.424 C 340.873 328.889,340.975 328.339,341.197 328.202 C 341.419 328.065,341.600 327.009,341.600 325.856 C 341.600 324.703,341.825 323.518,342.100 323.221 C 342.500 322.790,342.500 322.739,342.100 322.965 C 341.700 323.190,341.600 298.011,341.600 197.647 C 341.600 112.182,341.469 71.966,341.189 71.793 C 340.964 71.654,340.826 71.328,340.883 71.070 C 341.055 70.299,339.897 67.841,339.086 67.253 C 338.640 66.930,338.410 66.404,338.524 65.967 C 338.648 65.494,338.461 65.146,338.002 65.001 C 337.608 64.876,337.065 64.239,336.794 63.587 C 336.524 62.934,336.049 62.400,335.739 62.400 C 335.429 62.400,335.072 62.131,334.946 61.802 C 334.819 61.474,334.564 61.299,334.377 61.414 C 334.191 61.529,333.767 61.123,333.435 60.512 C 333.103 59.900,332.825 59.636,332.816 59.924 C 332.807 60.212,332.617 60.334,332.393 60.196 C 332.170 60.058,332.089 59.779,332.214 59.577 C 332.340 59.374,332.135 59.327,331.755 59.473 C 331.293 59.650,331.162 59.585,331.355 59.273 C 331.542 58.970,331.426 58.892,331.021 59.047 C 330.679 59.178,330.400 59.086,330.400 58.843 C 330.400 58.599,329.905 58.397,329.300 58.394 C 328.443 58.389,328.332 58.302,328.800 58.000 C 329.245 57.712,329.007 57.611,327.876 57.606 C 327.038 57.603,326.444 57.452,326.556 57.271 C 326.668 57.089,325.828 56.899,324.689 56.847 C 323.550 56.795,322.500 56.563,322.357 56.331 C 322.189 56.059,322.027 56.103,321.901 56.455 C 321.741 56.899,321.548 56.907,320.858 56.500 C 319.614 55.765,81.168 55.765,79.982 56.500 C 79.317 56.912,79.109 56.895,78.794 56.400 C 78.540 56.001,78.410 55.968,78.406 56.300 M206.000 82.800 C 206.000 83.020,206.360 83.200,206.800 83.200 C 207.240 83.200,207.600 83.380,207.600 83.600 C 207.600 83.820,207.870 84.000,208.200 84.000 C 208.530 84.000,208.800 84.282,208.800 84.626 C 208.800 84.970,209.340 85.706,210.000 86.261 C 210.707 86.856,211.200 87.658,211.200 88.212 C 211.200 88.729,211.380 89.264,211.600 89.400 C 211.832 89.543,212.000 91.730,212.000 94.600 C 212.000 97.470,211.832 99.657,211.600 99.800 C 211.380 99.936,211.200 100.530,211.200 101.120 C 211.200 102.459,208.507 108.014,207.510 108.733 C 207.103 109.026,206.335 109.701,205.803 110.233 C 205.271 110.765,204.558 111.200,204.218 111.200 C 203.878 111.200,203.600 111.380,203.600 111.600 C 203.600 111.820,203.240 112.000,202.800 112.000 C 202.360 112.000,202.000 112.160,202.000 112.356 C 202.000 112.834,199.723 113.227,195.600 113.462 C 193.730 113.569,192.029 113.824,191.820 114.028 C 191.611 114.233,189.867 114.400,187.944 114.400 C 186.021 114.400,184.336 114.580,184.200 114.800 C 184.064 115.020,182.343 115.200,180.376 115.200 C 178.259 115.200,176.800 115.363,176.800 115.600 C 176.800 115.826,175.667 116.000,174.200 116.000 C 172.733 116.000,171.600 116.174,171.600 116.400 C 171.600 116.622,170.533 116.800,169.200 116.800 C 167.867 116.800,166.800 116.978,166.800 117.200 C 166.800 117.420,165.900 117.600,164.800 117.600 C 163.700 117.600,162.800 117.780,162.800 118.000 C 162.800 118.220,161.990 118.400,161.000 118.400 C 160.010 118.400,159.200 118.580,159.200 118.800 C 159.200 119.020,158.480 119.200,157.600 119.200 C 156.720 119.200,156.000 119.380,156.000 119.600 C 156.000 119.820,155.460 120.000,154.800 120.000 C 154.140 120.000,153.600 120.180,153.600 120.400 C 153.600 120.620,152.981 120.800,152.224 120.800 C 151.467 120.800,150.736 120.980,150.600 121.200 C 150.464 121.420,149.823 121.600,149.176 121.600 C 148.529 121.600,148.000 121.780,148.000 122.000 C 148.000 122.220,147.460 122.400,146.800 122.400 C 146.140 122.400,145.600 122.580,145.600 122.800 C 145.600 123.020,145.150 123.200,144.600 123.200 C 144.050 123.200,143.600 123.380,143.600 123.600 C 143.600 123.820,143.060 124.000,142.400 124.000 C 141.740 124.000,141.200 124.169,141.200 124.375 C 141.200 124.582,140.351 124.878,139.313 125.034 C 138.275 125.190,137.181 125.562,136.881 125.862 C 136.581 126.162,136.170 126.305,135.968 126.180 C 135.765 126.055,135.600 126.253,135.600 126.619 C 135.600 127.041,135.384 127.203,135.013 127.060 C 134.690 126.936,134.319 127.007,134.189 127.217 C 134.059 127.428,133.603 127.600,133.176 127.600 C 132.749 127.600,132.400 127.780,132.400 128.000 C 132.400 128.220,132.040 128.400,131.600 128.400 C 131.160 128.400,130.800 128.580,130.800 128.800 C 130.800 129.020,130.538 129.200,130.218 129.200 C 129.898 129.200,129.177 129.660,128.615 130.222 C 128.053 130.783,127.415 131.133,127.197 130.998 C 126.978 130.863,126.800 130.943,126.800 131.176 C 126.800 131.409,126.410 131.600,125.933 131.600 C 125.457 131.600,125.178 131.711,125.314 131.848 C 125.626 132.159,124.614 133.200,124.000 133.200 C 123.211 133.200,122.400 134.301,122.400 135.371 C 122.400 135.937,122.220 136.400,122.000 136.400 C 121.780 136.400,121.600 137.300,121.600 138.400 C 121.600 139.500,121.420 140.400,121.200 140.400 C 120.980 140.400,120.800 141.210,120.800 142.200 C 120.800 143.190,120.620 144.000,120.400 144.000 C 120.163 144.000,120.000 145.467,120.000 147.600 C 120.000 149.733,119.837 151.200,119.600 151.200 C 119.346 151.200,119.200 154.200,119.200 159.400 C 119.200 167.503,119.473 169.024,120.600 167.200 C 120.736 166.980,121.276 166.800,121.800 166.800 C 122.324 166.800,122.864 166.620,123.000 166.400 C 123.136 166.180,123.607 166.000,124.047 166.000 C 124.487 166.000,124.736 165.820,124.600 165.600 C 124.456 165.367,124.863 165.200,125.576 165.200 C 126.249 165.200,126.800 165.020,126.800 164.800 C 126.800 164.580,127.160 164.400,127.600 164.400 C 128.040 164.400,128.400 164.220,128.400 164.000 C 128.400 163.780,128.940 163.600,129.600 163.600 C 130.260 163.600,130.800 163.420,130.800 163.200 C 130.800 162.980,131.340 162.800,132.000 162.800 C 132.660 162.800,133.200 162.620,133.200 162.400 C 133.200 162.180,133.560 162.000,134.000 162.000 C 134.440 162.000,134.800 161.820,134.800 161.600 C 134.800 161.380,135.239 161.200,135.776 161.200 C 136.313 161.200,136.864 161.020,137.000 160.800 C 137.136 160.580,137.591 160.400,138.011 160.400 C 138.432 160.400,139.392 160.054,140.145 159.631 C 140.898 159.208,142.346 158.737,143.362 158.585 C 144.378 158.432,145.308 158.148,145.429 157.954 C 145.549 157.759,145.984 157.600,146.395 157.600 C 146.806 157.600,147.431 157.312,147.783 156.960 C 148.192 156.551,148.770 156.406,149.379 156.559 C 149.904 156.691,150.394 156.620,150.467 156.403 C 150.540 156.185,151.082 155.967,151.672 155.919 C 152.261 155.870,152.711 155.643,152.672 155.415 C 152.632 155.187,153.185 155.027,153.900 155.059 C 154.615 155.091,155.200 154.956,155.200 154.759 C 155.200 154.562,155.751 154.400,156.424 154.400 C 157.137 154.400,157.544 154.233,157.400 154.000 C 157.256 153.767,157.663 153.600,158.376 153.600 C 159.049 153.600,159.600 153.420,159.600 153.200 C 159.600 152.980,160.320 152.800,161.200 152.800 C 162.080 152.800,162.800 152.620,162.800 152.400 C 162.800 152.180,163.239 152.000,163.776 152.000 C 164.313 152.000,164.864 151.820,165.000 151.600 C 165.136 151.380,165.676 151.200,166.200 151.200 C 166.724 151.200,167.264 151.020,167.400 150.800 C 167.536 150.580,168.267 150.400,169.024 150.400 C 169.781 150.400,170.400 150.220,170.400 150.000 C 170.400 149.780,170.929 149.600,171.576 149.600 C 172.223 149.600,172.864 149.420,173.000 149.200 C 173.136 148.980,173.867 148.800,174.624 148.800 C 175.381 148.800,176.000 148.620,176.000 148.400 C 176.000 148.180,176.720 148.000,177.600 148.000 C 178.480 148.000,179.200 147.820,179.200 147.600 C 179.200 147.380,179.920 147.200,180.800 147.200 C 181.680 147.200,182.400 147.020,182.400 146.800 C 182.400 146.580,183.199 146.400,184.176 146.400 C 185.153 146.400,186.064 146.220,186.200 146.000 C 186.336 145.780,187.236 145.600,188.200 145.600 C 189.164 145.600,190.064 145.420,190.200 145.200 C 190.336 144.980,191.247 144.800,192.224 144.800 C 193.201 144.800,194.000 144.620,194.000 144.400 C 194.000 144.180,194.900 144.000,196.000 144.000 C 197.100 144.000,198.000 143.820,198.000 143.600 C 198.000 142.861,200.206 143.176,200.800 144.000 C 201.117 144.440,201.615 144.800,201.906 144.800 C 202.637 144.800,204.400 146.626,204.400 147.382 C 204.400 147.722,204.580 148.000,204.800 148.000 C 205.020 148.000,205.200 148.360,205.200 148.800 C 205.200 149.240,205.380 149.600,205.600 149.600 C 205.820 149.600,206.000 150.320,206.000 151.200 C 206.000 152.080,206.180 152.800,206.400 152.800 C 206.629 152.800,206.800 154.000,206.800 155.600 C 206.800 157.200,206.629 158.400,206.400 158.400 C 206.180 158.400,206.000 159.379,206.000 160.576 C 206.000 161.773,205.820 162.864,205.600 163.000 C 205.380 163.136,205.200 163.647,205.200 164.135 C 205.200 164.624,204.840 165.283,204.400 165.600 C 203.960 165.917,203.600 166.497,203.600 166.888 C 203.600 167.280,203.312 167.600,202.960 167.600 C 202.609 167.600,201.817 168.140,201.200 168.800 C 200.583 169.460,199.857 170.000,199.586 170.000 C 199.316 170.000,198.801 170.315,198.443 170.700 C 197.604 171.601,196.177 172.400,195.405 172.400 C 195.072 172.400,194.800 172.580,194.800 172.800 C 194.800 173.020,194.530 173.200,194.200 173.200 C 193.870 173.200,193.600 173.380,193.600 173.600 C 193.600 173.820,193.351 174.000,193.046 174.000 C 192.741 174.000,191.976 174.269,191.346 174.598 C 190.716 174.926,189.782 175.196,189.271 175.198 C 188.761 175.199,188.071 175.472,187.739 175.804 C 187.407 176.136,186.970 176.305,186.768 176.180 C 186.565 176.055,186.400 176.254,186.400 176.623 C 186.400 177.124,186.145 177.245,185.390 177.100 C 184.835 176.994,184.285 177.063,184.167 177.254 C 184.049 177.444,183.603 177.600,183.176 177.600 C 182.749 177.600,182.400 177.780,182.400 178.000 C 182.400 178.220,181.961 178.400,181.424 178.400 C 180.887 178.400,180.336 178.580,180.200 178.800 C 180.064 179.020,179.423 179.200,178.776 179.200 C 178.129 179.200,177.600 179.380,177.600 179.600 C 177.600 179.820,177.229 180.000,176.776 180.000 C 176.323 180.000,176.064 180.180,176.200 180.400 C 176.344 180.633,175.937 180.800,175.224 180.800 C 174.551 180.800,174.000 180.980,174.000 181.200 C 174.000 181.420,173.460 181.600,172.800 181.600 C 172.140 181.600,171.600 181.780,171.600 182.000 C 171.600 182.220,171.060 182.400,170.400 182.400 C 169.740 182.400,169.200 182.580,169.200 182.800 C 169.200 183.020,168.840 183.200,168.400 183.200 C 167.960 183.200,167.600 183.380,167.600 183.600 C 167.600 183.820,167.161 184.000,166.624 184.000 C 166.087 184.000,165.536 184.180,165.400 184.400 C 165.264 184.620,164.623 184.800,163.976 184.800 C 163.329 184.800,162.800 184.980,162.800 185.200 C 162.800 185.420,162.361 185.600,161.824 185.600 C 161.287 185.600,160.736 185.780,160.600 186.000 C 160.464 186.220,159.913 186.400,159.376 186.400 C 158.839 186.400,158.400 186.580,158.400 186.800 C 158.400 187.020,158.040 187.200,157.600 187.200 C 157.160 187.200,156.800 187.380,156.800 187.600 C 156.800 187.820,156.260 188.000,155.600 188.000 C 154.940 188.000,154.400 188.180,154.400 188.400 C 154.400 188.620,153.860 188.800,153.200 188.800 C 152.540 188.800,152.000 188.980,152.000 189.200 C 152.000 189.420,151.640 189.600,151.200 189.600 C 150.760 189.600,150.400 189.736,150.400 189.902 C 150.400 190.316,148.516 191.068,146.700 191.379 C 145.875 191.521,145.200 191.808,145.200 192.018 C 145.200 192.228,144.943 192.400,144.629 192.400 C 144.314 192.400,143.784 192.673,143.450 193.007 C 143.116 193.341,142.698 193.592,142.521 193.564 C 141.743 193.442,140.400 194.144,140.400 194.674 C 140.400 195.072,140.149 195.174,139.600 195.000 C 139.141 194.854,138.800 194.928,138.800 195.173 C 138.800 195.408,138.440 195.600,138.000 195.600 C 137.560 195.600,137.200 195.780,137.200 196.000 C 137.200 196.220,136.840 196.400,136.400 196.400 C 135.960 196.400,135.600 196.580,135.600 196.800 C 135.600 197.020,135.240 197.200,134.800 197.200 C 134.360 197.200,134.000 197.380,134.000 197.600 C 134.000 197.820,133.640 198.000,133.200 198.000 C 132.760 198.000,132.400 198.180,132.400 198.400 C 132.400 198.620,132.080 198.800,131.688 198.800 C 131.297 198.800,130.717 199.160,130.400 199.600 C 130.083 200.040,129.621 200.400,129.374 200.400 C 129.126 200.400,128.598 200.760,128.200 201.200 C 127.802 201.640,127.210 202.000,126.885 202.000 C 126.276 202.000,124.800 203.459,124.800 204.061 C 124.800 204.248,124.512 204.400,124.160 204.400 C 123.809 204.400,123.017 204.940,122.400 205.600 C 121.783 206.260,121.063 206.800,120.800 206.800 C 120.537 206.800,119.822 207.334,119.213 207.986 C 118.604 208.638,117.992 209.058,117.853 208.919 C 117.714 208.780,117.600 209.406,117.600 210.310 C 117.600 211.213,117.420 212.064,117.200 212.200 C 116.971 212.342,116.800 214.404,116.800 217.024 C 116.800 219.808,116.643 221.600,116.400 221.600 C 116.142 221.600,116.000 226.133,116.000 234.400 C 116.000 242.667,116.142 247.200,116.400 247.200 C 116.646 247.200,116.800 249.200,116.800 252.400 C 116.800 255.600,116.646 257.600,116.400 257.600 C 116.180 257.600,116.000 258.123,116.000 258.762 C 116.000 259.780,114.625 263.044,113.962 263.600 C 113.830 263.710,113.602 264.295,113.454 264.900 C 113.306 265.505,113.015 266.000,112.808 266.000 C 112.601 266.000,111.718 266.720,110.847 267.600 C 109.976 268.480,109.108 269.200,108.920 269.200 C 108.731 269.200,108.317 269.560,108.000 270.000 C 107.661 270.470,106.965 270.800,106.312 270.800 C 105.700 270.800,105.200 270.980,105.200 271.200 C 105.200 271.420,104.300 271.600,103.200 271.600 C 102.100 271.600,101.200 271.780,101.200 272.000 C 101.200 272.222,100.133 272.400,98.800 272.400 C 97.467 272.400,96.400 272.222,96.400 272.000 C 96.400 271.780,95.860 271.600,95.200 271.600 C 94.540 271.600,94.000 271.420,94.000 271.200 C 94.000 270.980,93.706 270.800,93.347 270.800 C 92.988 270.800,92.358 270.412,91.947 269.939 C 91.259 269.146,91.140 268.847,91.234 268.145 C 91.253 268.004,91.117 267.779,90.932 267.645 C 89.738 266.776,89.600 264.277,89.600 243.472 C 89.600 229.691,89.738 222.400,90.000 222.400 C 90.249 222.400,90.400 220.160,90.400 216.480 C 90.400 213.224,90.565 210.389,90.766 210.180 C 90.967 209.971,91.262 205.250,91.420 199.690 C 91.579 194.129,91.864 189.484,92.054 189.366 C 92.244 189.249,92.400 186.553,92.400 183.376 C 92.400 179.792,92.552 177.600,92.800 177.600 C 93.051 177.600,93.200 175.133,93.200 171.000 C 93.200 166.867,93.349 164.400,93.600 164.400 C 93.851 164.400,94.000 161.800,94.000 157.400 C 94.000 153.000,94.149 150.400,94.400 150.400 C 94.648 150.400,94.800 148.200,94.800 144.600 C 94.800 141.000,94.952 138.800,95.200 138.800 C 96.584 138.800,95.320 133.220,93.929 133.188 C 93.638 133.181,92.950 132.630,92.400 131.963 C 91.850 131.296,90.995 130.319,90.500 129.793 C 90.005 129.267,89.600 128.378,89.600 127.818 C 89.600 127.258,89.420 126.800,89.200 126.800 C 88.980 126.800,88.800 126.350,88.800 125.800 C 88.800 125.250,88.620 124.800,88.400 124.800 C 88.180 124.800,88.000 123.900,88.000 122.800 C 88.000 121.700,88.141 120.800,88.313 120.800 C 88.485 120.800,88.662 120.305,88.708 119.700 C 88.826 118.116,89.720 115.200,90.087 115.200 C 90.259 115.200,90.400 114.936,90.400 114.614 C 90.400 113.801,91.676 111.200,92.074 111.200 C 92.253 111.200,92.400 110.917,92.400 110.571 C 92.400 109.772,93.360 108.800,94.149 108.800 C 94.482 108.800,95.006 108.441,95.313 108.003 C 95.620 107.564,95.991 107.324,96.136 107.469 C 96.281 107.614,96.400 107.414,96.400 107.024 C 96.400 106.608,96.614 106.397,96.917 106.513 C 97.201 106.622,97.767 106.467,98.176 106.168 C 98.584 105.870,99.071 105.720,99.259 105.836 C 99.447 105.952,99.600 105.752,99.600 105.390 C 99.600 105.029,99.825 104.809,100.100 104.902 C 100.375 104.994,101.190 104.739,101.912 104.335 C 102.634 103.931,103.489 103.600,103.812 103.600 C 104.135 103.600,104.400 103.420,104.400 103.200 C 104.400 102.980,104.839 102.800,105.376 102.800 C 105.913 102.800,106.464 102.620,106.600 102.400 C 106.736 102.180,107.467 102.000,108.224 102.000 C 108.981 102.000,109.600 101.820,109.600 101.600 C 109.600 101.380,110.140 101.200,110.800 101.200 C 111.460 101.200,112.000 101.020,112.000 100.800 C 112.000 100.580,112.540 100.400,113.200 100.400 C 113.860 100.400,114.400 100.220,114.400 100.000 C 114.400 99.780,114.940 99.600,115.600 99.600 C 116.260 99.600,116.800 99.420,116.800 99.200 C 116.800 98.980,117.520 98.800,118.400 98.800 C 119.280 98.800,120.000 98.620,120.000 98.400 C 120.000 98.180,120.540 98.000,121.200 98.000 C 121.860 98.000,122.400 97.820,122.400 97.600 C 122.400 97.380,122.940 97.200,123.600 97.200 C 124.260 97.200,124.800 97.020,124.800 96.800 C 124.800 96.580,125.430 96.400,126.200 96.400 C 126.970 96.400,127.600 96.220,127.600 96.000 C 127.600 95.780,128.140 95.600,128.800 95.600 C 129.460 95.600,130.000 95.420,130.000 95.200 C 130.000 94.980,130.720 94.800,131.600 94.800 C 132.480 94.800,133.200 94.620,133.200 94.400 C 133.200 94.180,133.740 94.000,134.400 94.000 C 135.060 94.000,135.600 93.820,135.600 93.600 C 135.600 93.380,136.320 93.200,137.200 93.200 C 138.080 93.200,138.800 93.020,138.800 92.800 C 138.800 92.580,139.239 92.400,139.776 92.400 C 140.313 92.400,140.849 92.244,140.967 92.053 C 141.086 91.862,142.302 91.579,143.671 91.424 C 145.041 91.269,146.459 90.982,146.824 90.787 C 147.188 90.592,148.142 90.389,148.943 90.335 C 149.744 90.281,150.400 90.093,150.400 89.918 C 150.400 89.743,151.120 89.600,152.000 89.600 C 152.880 89.600,153.600 89.420,153.600 89.200 C 153.600 88.980,154.331 88.800,155.224 88.800 C 156.204 88.800,156.749 88.642,156.600 88.400 C 156.451 88.158,156.996 88.000,157.976 88.000 C 158.869 88.000,159.600 87.820,159.600 87.600 C 159.600 87.380,160.399 87.200,161.376 87.200 C 162.353 87.200,163.264 87.020,163.400 86.800 C 163.536 86.580,164.357 86.400,165.224 86.400 C 166.091 86.400,166.800 86.220,166.800 86.000 C 166.800 85.778,167.867 85.600,169.200 85.600 C 170.533 85.600,171.600 85.422,171.600 85.200 C 171.600 84.980,172.410 84.800,173.400 84.800 C 174.390 84.800,175.200 84.620,175.200 84.400 C 175.200 84.171,176.400 84.000,178.000 84.000 C 179.600 84.000,180.800 83.829,180.800 83.600 C 180.800 83.367,182.133 83.200,184.000 83.200 C 185.867 83.200,187.200 83.033,187.200 82.800 C 187.200 82.545,190.600 82.400,196.600 82.400 C 202.600 82.400,206.000 82.545,206.000 82.800 " stroke="none" fill="#74c4dc" fill-rule="evenodd"></path><path id="path1" d="M388.901 13.039 C 389.286 13.493,389.504 13.963,389.384 14.083 C 389.264 14.203,389.447 14.409,389.792 14.542 C 390.603 14.853,389.986 13.600,388.922 12.774 C 388.230 12.237,388.230 12.249,388.901 13.039 M10.431 14.692 C 9.936 15.778,9.938 15.780,10.757 15.039 C 11.210 14.629,11.485 14.137,11.367 13.947 C 11.051 13.436,10.976 13.495,10.431 14.692 M5.200 24.024 C 5.200 24.477,5.380 24.736,5.600 24.600 C 5.820 24.464,6.000 24.093,6.000 23.776 C 6.000 23.459,5.820 23.200,5.600 23.200 C 5.380 23.200,5.200 23.571,5.200 24.024 M3.012 32.517 C 2.841 32.912,2.813 33.347,2.951 33.484 C 3.357 33.890,3.684 33.320,3.497 32.531 C 3.332 31.833,3.310 31.832,3.012 32.517 M397.200 32.776 C 397.200 33.229,397.380 33.600,397.600 33.600 C 397.820 33.600,398.000 33.341,398.000 33.024 C 398.000 32.707,397.820 32.336,397.600 32.200 C 397.380 32.064,397.200 32.323,397.200 32.776 M140.500 43.100 C 173.445 43.156,227.355 43.156,260.300 43.100 C 293.245 43.044,266.290 42.997,200.400 42.997 C 134.510 42.997,107.555 43.044,140.500 43.100 M74.400 43.600 C 74.400 43.820,74.659 44.000,74.976 44.000 C 75.293 44.000,75.664 43.820,75.800 43.600 C 75.936 43.380,75.677 43.200,75.224 43.200 C 74.771 43.200,74.400 43.380,74.400 43.600 M324.800 43.600 C 324.800 43.820,325.059 44.000,325.376 44.000 C 325.693 44.000,326.064 43.820,326.200 43.600 C 326.336 43.380,326.077 43.200,325.624 43.200 C 325.171 43.200,324.800 43.380,324.800 43.600 M65.600 46.400 C 65.050 46.830,64.814 47.186,65.076 47.191 C 65.338 47.196,65.664 47.020,65.800 46.800 C 65.936 46.580,66.397 46.400,66.824 46.400 C 67.251 46.400,67.600 46.220,67.600 46.000 C 67.600 45.366,66.688 45.549,65.600 46.400 M78.800 56.400 C 78.800 56.620,79.059 56.800,79.376 56.800 C 79.693 56.800,80.064 56.620,80.200 56.400 C 80.336 56.180,80.077 56.000,79.624 56.000 C 79.171 56.000,78.800 56.180,78.800 56.400 M320.600 56.400 C 320.736 56.620,321.107 56.800,321.424 56.800 C 321.741 56.800,322.000 56.620,322.000 56.400 C 322.000 56.180,321.629 56.000,321.176 56.000 C 320.723 56.000,320.464 56.180,320.600 56.400 M71.600 58.025 C 71.600 58.480,72.675 58.527,72.949 58.083 C 73.056 57.909,72.797 57.740,72.372 57.708 C 71.948 57.676,71.600 57.819,71.600 58.025 M69.266 58.993 C 67.961 59.712,67.303 60.400,67.920 60.400 C 68.184 60.400,68.400 60.209,68.400 59.976 C 68.400 59.743,68.573 59.660,68.785 59.791 C 68.997 59.922,69.537 59.663,69.985 59.215 C 70.898 58.302,70.656 58.227,69.266 58.993 M330.403 58.719 C 330.404 58.873,330.944 59.307,331.603 59.681 C 332.261 60.056,332.799 60.236,332.797 60.081 C 332.796 59.927,332.256 59.493,331.597 59.119 C 330.939 58.744,330.401 58.564,330.403 58.719 M65.004 62.396 C 64.374 63.054,63.935 63.642,64.029 63.703 C 64.123 63.764,64.770 63.226,65.466 62.507 C 66.162 61.788,66.601 61.200,66.441 61.200 C 66.281 61.200,65.634 61.738,65.004 62.396 M338.446 66.051 C 338.421 66.409,338.670 66.926,339.000 67.200 C 339.415 67.544,339.600 67.559,339.600 67.249 C 339.600 67.002,339.433 66.800,339.229 66.800 C 339.025 66.800,338.776 66.485,338.676 66.100 C 338.521 65.509,338.486 65.502,338.446 66.051 M61.698 66.689 C 61.421 66.788,61.297 67.033,61.421 67.234 C 61.545 67.435,61.476 67.600,61.266 67.600 C 61.057 67.600,60.786 67.861,60.663 68.180 C 60.338 69.028,61.316 68.547,61.936 67.553 C 62.510 66.634,62.451 66.420,61.698 66.689 M45.896 73.733 C 45.433 74.879,45.516 75.844,46.034 75.326 C 46.272 75.088,46.406 74.467,46.330 73.946 C 46.209 73.113,46.157 73.088,45.896 73.733 M58.643 77.033 C 58.219 78.137,58.375 323.342,58.800 324.000 C 59.051 324.388,59.190 280.768,59.194 200.500 C 59.197 132.245,59.129 76.400,59.043 76.400 C 58.956 76.400,58.776 76.685,58.643 77.033 M341.606 200.124 C 341.602 282.106,341.734 323.165,342.000 323.000 C 342.543 322.664,342.543 78.440,342.000 77.600 C 341.749 77.212,341.610 120.486,341.606 200.124 M152.349 155.500 C 151.872 156.109,151.878 156.140,152.400 155.743 C 152.730 155.492,153.360 155.198,153.800 155.089 C 154.560 154.903,154.557 154.890,153.749 154.846 C 153.281 154.821,152.651 155.115,152.349 155.500 M45.600 325.976 C 45.600 326.429,45.780 326.800,46.000 326.800 C 46.220 326.800,46.400 326.541,46.400 326.224 C 46.400 325.907,46.220 325.536,46.000 325.400 C 45.780 325.264,45.600 325.523,45.600 325.976 M354.648 325.523 C 354.394 325.934,354.558 327.091,354.922 327.455 C 355.075 327.608,355.200 327.163,355.200 326.467 C 355.200 325.205,355.027 324.909,354.648 325.523 M46.406 331.300 C 46.411 332.028,46.486 332.085,46.800 331.600 C 47.301 330.824,47.301 330.400,46.800 330.400 C 46.580 330.400,46.403 330.805,46.406 331.300 M60.882 333.019 C 61.127 333.559,61.502 334.000,61.713 334.000 C 61.929 334.000,61.903 333.765,61.652 333.463 C 61.407 333.168,61.303 332.830,61.421 332.713 C 61.538 332.595,61.365 332.395,61.035 332.269 C 60.532 332.076,60.507 332.198,60.882 333.019 M65.762 338.990 C 66.606 339.786,67.350 340.384,67.415 340.318 C 67.631 340.102,65.341 337.802,64.779 337.671 C 64.475 337.600,64.918 338.194,65.762 338.990 M77.406 344.339 C 77.739 344.672,80.400 344.735,80.400 344.410 C 80.400 344.252,79.678 344.123,78.795 344.123 C 77.912 344.123,77.287 344.220,77.406 344.339 M320.400 344.348 C 320.400 344.752,323.042 344.691,323.456 344.278 C 323.608 344.125,322.983 344.000,322.067 344.000 C 321.150 344.000,320.400 344.157,320.400 344.348 M345.660 345.851 C 344.651 346.926,344.614 347.436,345.601 346.667 C 346.487 345.976,347.350 344.796,346.949 344.824 C 346.757 344.838,346.177 345.300,345.660 345.851 M342.400 349.200 C 342.400 349.420,342.130 349.600,341.800 349.600 C 341.470 349.600,341.200 349.780,341.200 350.000 C 341.200 350.641,341.818 350.464,342.600 349.600 C 343.011 349.146,343.124 348.800,342.862 348.800 C 342.608 348.800,342.400 348.980,342.400 349.200 M338.865 351.794 C 338.350 352.077,338.085 352.405,338.276 352.523 C 338.466 352.641,339.067 352.396,339.611 351.978 C 340.726 351.121,340.283 351.012,338.865 351.794 M336.246 353.425 C 336.114 353.769,335.837 353.946,335.630 353.819 C 335.424 353.691,335.142 353.770,335.004 353.993 C 334.544 354.738,335.865 354.412,336.600 353.600 C 336.998 353.160,337.135 352.800,336.905 352.800 C 336.674 352.800,336.378 353.081,336.246 353.425 M70.651 356.483 C 70.925 356.927,72.000 356.880,72.000 356.425 C 72.000 356.219,71.652 356.076,71.228 356.108 C 70.803 356.140,70.544 356.309,70.651 356.483 M2.800 367.753 C 2.800 368.083,2.980 368.464,3.200 368.600 C 3.420 368.736,3.600 368.577,3.600 368.247 C 3.600 367.917,3.420 367.536,3.200 367.400 C 2.980 367.264,2.800 367.423,2.800 367.753 M397.200 368.024 C 397.200 368.477,397.380 368.736,397.600 368.600 C 397.820 368.464,398.000 368.093,398.000 367.776 C 398.000 367.459,397.820 367.200,397.600 367.200 C 397.380 367.200,397.200 367.571,397.200 368.024 M5.200 376.553 C 5.200 376.883,5.380 377.264,5.600 377.400 C 5.820 377.536,6.000 377.377,6.000 377.047 C 6.000 376.717,5.820 376.336,5.600 376.200 C 5.380 376.064,5.200 376.223,5.200 376.553 M388.980 386.939 C 388.749 387.193,388.423 387.760,388.255 388.200 C 387.982 388.917,388.039 388.905,388.804 388.086 C 389.273 387.583,389.599 387.016,389.529 386.825 C 389.458 386.635,389.211 386.686,388.980 386.939 " stroke="none" fill="#78c4dc" fill-rule="evenodd"></path><path id="path2" d="M388.901 13.039 C 389.286 13.493,389.504 13.963,389.384 14.083 C 389.264 14.203,389.447 14.409,389.792 14.542 C 390.603 14.853,389.986 13.600,388.922 12.774 C 388.230 12.237,388.230 12.249,388.901 13.039 M10.431 14.692 C 9.936 15.778,9.938 15.780,10.757 15.039 C 11.210 14.629,11.485 14.137,11.367 13.947 C 11.051 13.436,10.976 13.495,10.431 14.692 M5.200 24.024 C 5.200 24.477,5.380 24.736,5.600 24.600 C 5.820 24.464,6.000 24.093,6.000 23.776 C 6.000 23.459,5.820 23.200,5.600 23.200 C 5.380 23.200,5.200 23.571,5.200 24.024 M3.012 32.517 C 2.841 32.912,2.813 33.347,2.951 33.484 C 3.357 33.890,3.684 33.320,3.497 32.531 C 3.332 31.833,3.310 31.832,3.012 32.517 M397.200 32.776 C 397.200 33.229,397.380 33.600,397.600 33.600 C 397.820 33.600,398.000 33.341,398.000 33.024 C 398.000 32.707,397.820 32.336,397.600 32.200 C 397.380 32.064,397.200 32.323,397.200 32.776 M140.500 43.100 C 173.445 43.156,227.355 43.156,260.300 43.100 C 293.245 43.044,266.290 42.997,200.400 42.997 C 134.510 42.997,107.555 43.044,140.500 43.100 M74.400 43.600 C 74.400 43.820,74.659 44.000,74.976 44.000 C 75.293 44.000,75.664 43.820,75.800 43.600 C 75.936 43.380,75.677 43.200,75.224 43.200 C 74.771 43.200,74.400 43.380,74.400 43.600 M324.800 43.600 C 324.800 43.820,325.059 44.000,325.376 44.000 C 325.693 44.000,326.064 43.820,326.200 43.600 C 326.336 43.380,326.077 43.200,325.624 43.200 C 325.171 43.200,324.800 43.380,324.800 43.600 M65.600 46.400 C 65.050 46.830,64.814 47.186,65.076 47.191 C 65.338 47.196,65.664 47.020,65.800 46.800 C 65.936 46.580,66.397 46.400,66.824 46.400 C 67.251 46.400,67.600 46.220,67.600 46.000 C 67.600 45.366,66.688 45.549,65.600 46.400 M78.800 56.400 C 78.800 56.620,79.059 56.800,79.376 56.800 C 79.693 56.800,80.064 56.620,80.200 56.400 C 80.336 56.180,80.077 56.000,79.624 56.000 C 79.171 56.000,78.800 56.180,78.800 56.400 M320.600 56.400 C 320.736 56.620,321.107 56.800,321.424 56.800 C 321.741 56.800,322.000 56.620,322.000 56.400 C 322.000 56.180,321.629 56.000,321.176 56.000 C 320.723 56.000,320.464 56.180,320.600 56.400 M71.600 58.025 C 71.600 58.480,72.675 58.527,72.949 58.083 C 73.056 57.909,72.797 57.740,72.372 57.708 C 71.948 57.676,71.600 57.819,71.600 58.025 M69.266 58.993 C 67.961 59.712,67.303 60.400,67.920 60.400 C 68.184 60.400,68.400 60.209,68.400 59.976 C 68.400 59.743,68.573 59.660,68.785 59.791 C 68.997 59.922,69.537 59.663,69.985 59.215 C 70.898 58.302,70.656 58.227,69.266 58.993 M330.403 58.719 C 330.404 58.873,330.944 59.307,331.603 59.681 C 332.261 60.056,332.799 60.236,332.797 60.081 C 332.796 59.927,332.256 59.493,331.597 59.119 C 330.939 58.744,330.401 58.564,330.403 58.719 M65.004 62.396 C 64.374 63.054,63.935 63.642,64.029 63.703 C 64.123 63.764,64.770 63.226,65.466 62.507 C 66.162 61.788,66.601 61.200,66.441 61.200 C 66.281 61.200,65.634 61.738,65.004 62.396 M338.446 66.051 C 338.421 66.409,338.670 66.926,339.000 67.200 C 339.415 67.544,339.600 67.559,339.600 67.249 C 339.600 67.002,339.433 66.800,339.229 66.800 C 339.025 66.800,338.776 66.485,338.676 66.100 C 338.521 65.509,338.486 65.502,338.446 66.051 M61.698 66.689 C 61.421 66.788,61.297 67.033,61.421 67.234 C 61.545 67.435,61.476 67.600,61.266 67.600 C 61.057 67.600,60.786 67.861,60.663 68.180 C 60.338 69.028,61.316 68.547,61.936 67.553 C 62.510 66.634,62.451 66.420,61.698 66.689 M45.896 73.733 C 45.433 74.879,45.516 75.844,46.034 75.326 C 46.272 75.088,46.406 74.467,46.330 73.946 C 46.209 73.113,46.157 73.088,45.896 73.733 M58.643 77.033 C 58.219 78.137,58.375 323.342,58.800 324.000 C 59.051 324.388,59.190 280.768,59.194 200.500 C 59.197 132.245,59.129 76.400,59.043 76.400 C 58.956 76.400,58.776 76.685,58.643 77.033 M341.606 200.124 C 341.602 282.106,341.734 323.165,342.000 323.000 C 342.543 322.664,342.543 78.440,342.000 77.600 C 341.749 77.212,341.610 120.486,341.606 200.124 M152.349 155.500 C 151.872 156.109,151.878 156.140,152.400 155.743 C 152.730 155.492,153.360 155.198,153.800 155.089 C 154.560 154.903,154.557 154.890,153.749 154.846 C 153.281 154.821,152.651 155.115,152.349 155.500 M45.600 325.976 C 45.600 326.429,45.780 326.800,46.000 326.800 C 46.220 326.800,46.400 326.541,46.400 326.224 C 46.400 325.907,46.220 325.536,46.000 325.400 C 45.780 325.264,45.600 325.523,45.600 325.976 M354.648 325.523 C 354.394 325.934,354.558 327.091,354.922 327.455 C 355.075 327.608,355.200 327.163,355.200 326.467 C 355.200 325.205,355.027 324.909,354.648 325.523 M46.406 331.300 C 46.411 332.028,46.486 332.085,46.800 331.600 C 47.301 330.824,47.301 330.400,46.800 330.400 C 46.580 330.400,46.403 330.805,46.406 331.300 M60.882 333.019 C 61.127 333.559,61.502 334.000,61.713 334.000 C 61.929 334.000,61.903 333.765,61.652 333.463 C 61.407 333.168,61.303 332.830,61.421 332.713 C 61.538 332.595,61.365 332.395,61.035 332.269 C 60.532 332.076,60.507 332.198,60.882 333.019 M65.762 338.990 C 66.606 339.786,67.350 340.384,67.415 340.318 C 67.631 340.102,65.341 337.802,64.779 337.671 C 64.475 337.600,64.918 338.194,65.762 338.990 M77.406 344.339 C 77.739 344.672,80.400 344.735,80.400 344.410 C 80.400 344.252,79.678 344.123,78.795 344.123 C 77.912 344.123,77.287 344.220,77.406 344.339 M320.400 344.348 C 320.400 344.752,323.042 344.691,323.456 344.278 C 323.608 344.125,322.983 344.000,322.067 344.000 C 321.150 344.000,320.400 344.157,320.400 344.348 M345.660 345.851 C 344.651 346.926,344.614 347.436,345.601 346.667 C 346.487 345.976,347.350 344.796,346.949 344.824 C 346.757 344.838,346.177 345.300,345.660 345.851 M342.400 349.200 C 342.400 349.420,342.130 349.600,341.800 349.600 C 341.470 349.600,341.200 349.780,341.200 350.000 C 341.200 350.641,341.818 350.464,342.600 349.600 C 343.011 349.146,343.124 348.800,342.862 348.800 C 342.608 348.800,342.400 348.980,342.400 349.200 M338.865 351.794 C 338.350 352.077,338.085 352.405,338.276 352.523 C 338.466 352.641,339.067 352.396,339.611 351.978 C 340.726 351.121,340.283 351.012,338.865 351.794 M336.246 353.425 C 336.114 353.769,335.837 353.946,335.630 353.819 C 335.424 353.691,335.142 353.770,335.004 353.993 C 334.544 354.738,335.865 354.412,336.600 353.600 C 336.998 353.160,337.135 352.800,336.905 352.800 C 336.674 352.800,336.378 353.081,336.246 353.425 M70.651 356.483 C 70.925 356.927,72.000 356.880,72.000 356.425 C 72.000 356.219,71.652 356.076,71.228 356.108 C 70.803 356.140,70.544 356.309,70.651 356.483 M2.800 367.753 C 2.800 368.083,2.980 368.464,3.200 368.600 C 3.420 368.736,3.600 368.577,3.600 368.247 C 3.600 367.917,3.420 367.536,3.200 367.400 C 2.980 367.264,2.800 367.423,2.800 367.753 M397.200 368.024 C 397.200 368.477,397.380 368.736,397.600 368.600 C 397.820 368.464,398.000 368.093,398.000 367.776 C 398.000 367.459,397.820 367.200,397.600 367.200 C 397.380 367.200,397.200 367.571,397.200 368.024 M5.200 376.553 C 5.200 376.883,5.380 377.264,5.600 377.400 C 5.820 377.536,6.000 377.377,6.000 377.047 C 6.000 376.717,5.820 376.336,5.600 376.200 C 5.380 376.064,5.200 376.223,5.200 376.553 M388.980 386.939 C 388.749 387.193,388.423 387.760,388.255 388.200 C 387.982 388.917,388.039 388.905,388.804 388.086 C 389.273 387.583,389.599 387.016,389.529 386.825 C 389.458 386.635,389.211 386.686,388.980 386.939 " stroke="none" fill="#78c4dc" fill-rule="evenodd"></path><path id="path3" d="M388.901 13.039 C 389.286 13.493,389.504 13.963,389.384 14.083 C 389.264 14.203,389.447 14.409,389.792 14.542 C 390.603 14.853,389.986 13.600,388.922 12.774 C 388.230 12.237,388.230 12.249,388.901 13.039 M10.431 14.692 C 9.936 15.778,9.938 15.780,10.757 15.039 C 11.210 14.629,11.485 14.137,11.367 13.947 C 11.051 13.436,10.976 13.495,10.431 14.692 M5.200 24.024 C 5.200 24.477,5.380 24.736,5.600 24.600 C 5.820 24.464,6.000 24.093,6.000 23.776 C 6.000 23.459,5.820 23.200,5.600 23.200 C 5.380 23.200,5.200 23.571,5.200 24.024 M3.012 32.517 C 2.841 32.912,2.813 33.347,2.951 33.484 C 3.357 33.890,3.684 33.320,3.497 32.531 C 3.332 31.833,3.310 31.832,3.012 32.517 M397.200 32.776 C 397.200 33.229,397.380 33.600,397.600 33.600 C 397.820 33.600,398.000 33.341,398.000 33.024 C 398.000 32.707,397.820 32.336,397.600 32.200 C 397.380 32.064,397.200 32.323,397.200 32.776 M140.500 43.100 C 173.445 43.156,227.355 43.156,260.300 43.100 C 293.245 43.044,266.290 42.997,200.400 42.997 C 134.510 42.997,107.555 43.044,140.500 43.100 M74.400 43.600 C 74.400 43.820,74.659 44.000,74.976 44.000 C 75.293 44.000,75.664 43.820,75.800 43.600 C 75.936 43.380,75.677 43.200,75.224 43.200 C 74.771 43.200,74.400 43.380,74.400 43.600 M324.800 43.600 C 324.800 43.820,325.059 44.000,325.376 44.000 C 325.693 44.000,326.064 43.820,326.200 43.600 C 326.336 43.380,326.077 43.200,325.624 43.200 C 325.171 43.200,324.800 43.380,324.800 43.600 M65.600 46.400 C 65.050 46.830,64.814 47.186,65.076 47.191 C 65.338 47.196,65.664 47.020,65.800 46.800 C 65.936 46.580,66.397 46.400,66.824 46.400 C 67.251 46.400,67.600 46.220,67.600 46.000 C 67.600 45.366,66.688 45.549,65.600 46.400 M78.800 56.400 C 78.800 56.620,79.059 56.800,79.376 56.800 C 79.693 56.800,80.064 56.620,80.200 56.400 C 80.336 56.180,80.077 56.000,79.624 56.000 C 79.171 56.000,78.800 56.180,78.800 56.400 M320.600 56.400 C 320.736 56.620,321.107 56.800,321.424 56.800 C 321.741 56.800,322.000 56.620,322.000 56.400 C 322.000 56.180,321.629 56.000,321.176 56.000 C 320.723 56.000,320.464 56.180,320.600 56.400 M71.600 58.025 C 71.600 58.480,72.675 58.527,72.949 58.083 C 73.056 57.909,72.797 57.740,72.372 57.708 C 71.948 57.676,71.600 57.819,71.600 58.025 M69.266 58.993 C 67.961 59.712,67.303 60.400,67.920 60.400 C 68.184 60.400,68.400 60.209,68.400 59.976 C 68.400 59.743,68.573 59.660,68.785 59.791 C 68.997 59.922,69.537 59.663,69.985 59.215 C 70.898 58.302,70.656 58.227,69.266 58.993 M330.403 58.719 C 330.404 58.873,330.944 59.307,331.603 59.681 C 332.261 60.056,332.799 60.236,332.797 60.081 C 332.796 59.927,332.256 59.493,331.597 59.119 C 330.939 58.744,330.401 58.564,330.403 58.719 M65.004 62.396 C 64.374 63.054,63.935 63.642,64.029 63.703 C 64.123 63.764,64.770 63.226,65.466 62.507 C 66.162 61.788,66.601 61.200,66.441 61.200 C 66.281 61.200,65.634 61.738,65.004 62.396 M338.446 66.051 C 338.421 66.409,338.670 66.926,339.000 67.200 C 339.415 67.544,339.600 67.559,339.600 67.249 C 339.600 67.002,339.433 66.800,339.229 66.800 C 339.025 66.800,338.776 66.485,338.676 66.100 C 338.521 65.509,338.486 65.502,338.446 66.051 M61.698 66.689 C 61.421 66.788,61.297 67.033,61.421 67.234 C 61.545 67.435,61.476 67.600,61.266 67.600 C 61.057 67.600,60.786 67.861,60.663 68.180 C 60.338 69.028,61.316 68.547,61.936 67.553 C 62.510 66.634,62.451 66.420,61.698 66.689 M45.896 73.733 C 45.433 74.879,45.516 75.844,46.034 75.326 C 46.272 75.088,46.406 74.467,46.330 73.946 C 46.209 73.113,46.157 73.088,45.896 73.733 M58.643 77.033 C 58.219 78.137,58.375 323.342,58.800 324.000 C 59.051 324.388,59.190 280.768,59.194 200.500 C 59.197 132.245,59.129 76.400,59.043 76.400 C 58.956 76.400,58.776 76.685,58.643 77.033 M341.606 200.124 C 341.602 282.106,341.734 323.165,342.000 323.000 C 342.543 322.664,342.543 78.440,342.000 77.600 C 341.749 77.212,341.610 120.486,341.606 200.124 M152.349 155.500 C 151.872 156.109,151.878 156.140,152.400 155.743 C 152.730 155.492,153.360 155.198,153.800 155.089 C 154.560 154.903,154.557 154.890,153.749 154.846 C 153.281 154.821,152.651 155.115,152.349 155.500 M45.600 325.976 C 45.600 326.429,45.780 326.800,46.000 326.800 C 46.220 326.800,46.400 326.541,46.400 326.224 C 46.400 325.907,46.220 325.536,46.000 325.400 C 45.780 325.264,45.600 325.523,45.600 325.976 M354.648 325.523 C 354.394 325.934,354.558 327.091,354.922 327.455 C 355.075 327.608,355.200 327.163,355.200 326.467 C 355.200 325.205,355.027 324.909,354.648 325.523 M46.406 331.300 C 46.411 332.028,46.486 332.085,46.800 331.600 C 47.301 330.824,47.301 330.400,46.800 330.400 C 46.580 330.400,46.403 330.805,46.406 331.300 M60.882 333.019 C 61.127 333.559,61.502 334.000,61.713 334.000 C 61.929 334.000,61.903 333.765,61.652 333.463 C 61.407 333.168,61.303 332.830,61.421 332.713 C 61.538 332.595,61.365 332.395,61.035 332.269 C 60.532 332.076,60.507 332.198,60.882 333.019 M65.762 338.990 C 66.606 339.786,67.350 340.384,67.415 340.318 C 67.631 340.102,65.341 337.802,64.779 337.671 C 64.475 337.600,64.918 338.194,65.762 338.990 M77.406 344.339 C 77.739 344.672,80.400 344.735,80.400 344.410 C 80.400 344.252,79.678 344.123,78.795 344.123 C 77.912 344.123,77.287 344.220,77.406 344.339 M320.400 344.348 C 320.400 344.752,323.042 344.691,323.456 344.278 C 323.608 344.125,322.983 344.000,322.067 344.000 C 321.150 344.000,320.400 344.157,320.400 344.348 M345.660 345.851 C 344.651 346.926,344.614 347.436,345.601 346.667 C 346.487 345.976,347.350 344.796,346.949 344.824 C 346.757 344.838,346.177 345.300,345.660 345.851 M342.400 349.200 C 342.400 349.420,342.130 349.600,341.800 349.600 C 341.470 349.600,341.200 349.780,341.200 350.000 C 341.200 350.641,341.818 350.464,342.600 349.600 C 343.011 349.146,343.124 348.800,342.862 348.800 C 342.608 348.800,342.400 348.980,342.400 349.200 M338.865 351.794 C 338.350 352.077,338.085 352.405,338.276 352.523 C 338.466 352.641,339.067 352.396,339.611 351.978 C 340.726 351.121,340.283 351.012,338.865 351.794 M336.246 353.425 C 336.114 353.769,335.837 353.946,335.630 353.819 C 335.424 353.691,335.142 353.770,335.004 353.993 C 334.544 354.738,335.865 354.412,336.600 353.600 C 336.998 353.160,337.135 352.800,336.905 352.800 C 336.674 352.800,336.378 353.081,336.246 353.425 M70.651 356.483 C 70.925 356.927,72.000 356.880,72.000 356.425 C 72.000 356.219,71.652 356.076,71.228 356.108 C 70.803 356.140,70.544 356.309,70.651 356.483 M2.800 367.753 C 2.800 368.083,2.980 368.464,3.200 368.600 C 3.420 368.736,3.600 368.577,3.600 368.247 C 3.600 367.917,3.420 367.536,3.200 367.400 C 2.980 367.264,2.800 367.423,2.800 367.753 M397.200 368.024 C 397.200 368.477,397.380 368.736,397.600 368.600 C 397.820 368.464,398.000 368.093,398.000 367.776 C 398.000 367.459,397.820 367.200,397.600 367.200 C 397.380 367.200,397.200 367.571,397.200 368.024 M5.200 376.553 C 5.200 376.883,5.380 377.264,5.600 377.400 C 5.820 377.536,6.000 377.377,6.000 377.047 C 6.000 376.717,5.820 376.336,5.600 376.200 C 5.380 376.064,5.200 376.223,5.200 376.553 M388.980 386.939 C 388.749 387.193,388.423 387.760,388.255 388.200 C 387.982 388.917,388.039 388.905,388.804 388.086 C 389.273 387.583,389.599 387.016,389.529 386.825 C 389.458 386.635,389.211 386.686,388.980 386.939 " stroke="none" fill="#78c4dc" fill-rule="evenodd"></path><path id="path4" d="M388.901 13.039 C 389.286 13.493,389.504 13.963,389.384 14.083 C 389.264 14.203,389.447 14.409,389.792 14.542 C 390.603 14.853,389.986 13.600,388.922 12.774 C 388.230 12.237,388.230 12.249,388.901 13.039 M10.431 14.692 C 9.936 15.778,9.938 15.780,10.757 15.039 C 11.210 14.629,11.485 14.137,11.367 13.947 C 11.051 13.436,10.976 13.495,10.431 14.692 M5.200 24.024 C 5.200 24.477,5.380 24.736,5.600 24.600 C 5.820 24.464,6.000 24.093,6.000 23.776 C 6.000 23.459,5.820 23.200,5.600 23.200 C 5.380 23.200,5.200 23.571,5.200 24.024 M3.012 32.517 C 2.841 32.912,2.813 33.347,2.951 33.484 C 3.357 33.890,3.684 33.320,3.497 32.531 C 3.332 31.833,3.310 31.832,3.012 32.517 M397.200 32.776 C 397.200 33.229,397.380 33.600,397.600 33.600 C 397.820 33.600,398.000 33.341,398.000 33.024 C 398.000 32.707,397.820 32.336,397.600 32.200 C 397.380 32.064,397.200 32.323,397.200 32.776 M140.500 43.100 C 173.445 43.156,227.355 43.156,260.300 43.100 C 293.245 43.044,266.290 42.997,200.400 42.997 C 134.510 42.997,107.555 43.044,140.500 43.100 M74.400 43.600 C 74.400 43.820,74.659 44.000,74.976 44.000 C 75.293 44.000,75.664 43.820,75.800 43.600 C 75.936 43.380,75.677 43.200,75.224 43.200 C 74.771 43.200,74.400 43.380,74.400 43.600 M324.800 43.600 C 324.800 43.820,325.059 44.000,325.376 44.000 C 325.693 44.000,326.064 43.820,326.200 43.600 C 326.336 43.380,326.077 43.200,325.624 43.200 C 325.171 43.200,324.800 43.380,324.800 43.600 M65.600 46.400 C 65.050 46.830,64.814 47.186,65.076 47.191 C 65.338 47.196,65.664 47.020,65.800 46.800 C 65.936 46.580,66.397 46.400,66.824 46.400 C 67.251 46.400,67.600 46.220,67.600 46.000 C 67.600 45.366,66.688 45.549,65.600 46.400 M78.800 56.400 C 78.800 56.620,79.059 56.800,79.376 56.800 C 79.693 56.800,80.064 56.620,80.200 56.400 C 80.336 56.180,80.077 56.000,79.624 56.000 C 79.171 56.000,78.800 56.180,78.800 56.400 M320.600 56.400 C 320.736 56.620,321.107 56.800,321.424 56.800 C 321.741 56.800,322.000 56.620,322.000 56.400 C 322.000 56.180,321.629 56.000,321.176 56.000 C 320.723 56.000,320.464 56.180,320.600 56.400 M71.600 58.025 C 71.600 58.480,72.675 58.527,72.949 58.083 C 73.056 57.909,72.797 57.740,72.372 57.708 C 71.948 57.676,71.600 57.819,71.600 58.025 M69.266 58.993 C 67.961 59.712,67.303 60.400,67.920 60.400 C 68.184 60.400,68.400 60.209,68.400 59.976 C 68.400 59.743,68.573 59.660,68.785 59.791 C 68.997 59.922,69.537 59.663,69.985 59.215 C 70.898 58.302,70.656 58.227,69.266 58.993 M330.403 58.719 C 330.404 58.873,330.944 59.307,331.603 59.681 C 332.261 60.056,332.799 60.236,332.797 60.081 C 332.796 59.927,332.256 59.493,331.597 59.119 C 330.939 58.744,330.401 58.564,330.403 58.719 M65.004 62.396 C 64.374 63.054,63.935 63.642,64.029 63.703 C 64.123 63.764,64.770 63.226,65.466 62.507 C 66.162 61.788,66.601 61.200,66.441 61.200 C 66.281 61.200,65.634 61.738,65.004 62.396 M338.446 66.051 C 338.421 66.409,338.670 66.926,339.000 67.200 C 339.415 67.544,339.600 67.559,339.600 67.249 C 339.600 67.002,339.433 66.800,339.229 66.800 C 339.025 66.800,338.776 66.485,338.676 66.100 C 338.521 65.509,338.486 65.502,338.446 66.051 M61.698 66.689 C 61.421 66.788,61.297 67.033,61.421 67.234 C 61.545 67.435,61.476 67.600,61.266 67.600 C 61.057 67.600,60.786 67.861,60.663 68.180 C 60.338 69.028,61.316 68.547,61.936 67.553 C 62.510 66.634,62.451 66.420,61.698 66.689 M45.896 73.733 C 45.433 74.879,45.516 75.844,46.034 75.326 C 46.272 75.088,46.406 74.467,46.330 73.946 C 46.209 73.113,46.157 73.088,45.896 73.733 M58.643 77.033 C 58.219 78.137,58.375 323.342,58.800 324.000 C 59.051 324.388,59.190 280.768,59.194 200.500 C 59.197 132.245,59.129 76.400,59.043 76.400 C 58.956 76.400,58.776 76.685,58.643 77.033 M341.606 200.124 C 341.602 282.106,341.734 323.165,342.000 323.000 C 342.543 322.664,342.543 78.440,342.000 77.600 C 341.749 77.212,341.610 120.486,341.606 200.124 M152.349 155.500 C 151.872 156.109,151.878 156.140,152.400 155.743 C 152.730 155.492,153.360 155.198,153.800 155.089 C 154.560 154.903,154.557 154.890,153.749 154.846 C 153.281 154.821,152.651 155.115,152.349 155.500 M45.600 325.976 C 45.600 326.429,45.780 326.800,46.000 326.800 C 46.220 326.800,46.400 326.541,46.400 326.224 C 46.400 325.907,46.220 325.536,46.000 325.400 C 45.780 325.264,45.600 325.523,45.600 325.976 M354.648 325.523 C 354.394 325.934,354.558 327.091,354.922 327.455 C 355.075 327.608,355.200 327.163,355.200 326.467 C 355.200 325.205,355.027 324.909,354.648 325.523 M46.406 331.300 C 46.411 332.028,46.486 332.085,46.800 331.600 C 47.301 330.824,47.301 330.400,46.800 330.400 C 46.580 330.400,46.403 330.805,46.406 331.300 M60.882 333.019 C 61.127 333.559,61.502 334.000,61.713 334.000 C 61.929 334.000,61.903 333.765,61.652 333.463 C 61.407 333.168,61.303 332.830,61.421 332.713 C 61.538 332.595,61.365 332.395,61.035 332.269 C 60.532 332.076,60.507 332.198,60.882 333.019 M65.762 338.990 C 66.606 339.786,67.350 340.384,67.415 340.318 C 67.631 340.102,65.341 337.802,64.779 337.671 C 64.475 337.600,64.918 338.194,65.762 338.990 M77.406 344.339 C 77.739 344.672,80.400 344.735,80.400 344.410 C 80.400 344.252,79.678 344.123,78.795 344.123 C 77.912 344.123,77.287 344.220,77.406 344.339 M320.400 344.348 C 320.400 344.752,323.042 344.691,323.456 344.278 C 323.608 344.125,322.983 344.000,322.067 344.000 C 321.150 344.000,320.400 344.157,320.400 344.348 M345.660 345.851 C 344.651 346.926,344.614 347.436,345.601 346.667 C 346.487 345.976,347.350 344.796,346.949 344.824 C 346.757 344.838,346.177 345.300,345.660 345.851 M342.400 349.200 C 342.400 349.420,342.130 349.600,341.800 349.600 C 341.470 349.600,341.200 349.780,341.200 350.000 C 341.200 350.641,341.818 350.464,342.600 349.600 C 343.011 349.146,343.124 348.800,342.862 348.800 C 342.608 348.800,342.400 348.980,342.400 349.200 M338.865 351.794 C 338.350 352.077,338.085 352.405,338.276 352.523 C 338.466 352.641,339.067 352.396,339.611 351.978 C 340.726 351.121,340.283 351.012,338.865 351.794 M336.246 353.425 C 336.114 353.769,335.837 353.946,335.630 353.819 C 335.424 353.691,335.142 353.770,335.004 353.993 C 334.544 354.738,335.865 354.412,336.600 353.600 C 336.998 353.160,337.135 352.800,336.905 352.800 C 336.674 352.800,336.378 353.081,336.246 353.425 M70.651 356.483 C 70.925 356.927,72.000 356.880,72.000 356.425 C 72.000 356.219,71.652 356.076,71.228 356.108 C 70.803 356.140,70.544 356.309,70.651 356.483 M2.800 367.753 C 2.800 368.083,2.980 368.464,3.200 368.600 C 3.420 368.736,3.600 368.577,3.600 368.247 C 3.600 367.917,3.420 367.536,3.200 367.400 C 2.980 367.264,2.800 367.423,2.800 367.753 M397.200 368.024 C 397.200 368.477,397.380 368.736,397.600 368.600 C 397.820 368.464,398.000 368.093,398.000 367.776 C 398.000 367.459,397.820 367.200,397.600 367.200 C 397.380 367.200,397.200 367.571,397.200 368.024 M5.200 376.553 C 5.200 376.883,5.380 377.264,5.600 377.400 C 5.820 377.536,6.000 377.377,6.000 377.047 C 6.000 376.717,5.820 376.336,5.600 376.200 C 5.380 376.064,5.200 376.223,5.200 376.553 M388.980 386.939 C 388.749 387.193,388.423 387.760,388.255 388.200 C 387.982 388.917,388.039 388.905,388.804 388.086 C 389.273 387.583,389.599 387.016,389.529 386.825 C 389.458 386.635,389.211 386.686,388.980 386.939 " stroke="none" fill="#78c4dc" fill-rule="evenodd"></path></g></svg>